<svg width="78" height="29" viewBox="0 0 78 29" fill="none" xmlns="http://www.w3.org/2000/svg">
<path d="M3.8748 19.0357H37.2998V28.981H27.3248V24.7143H3.8748V19.0357ZM0.549805 17.8078C0.549805 10.7479 0.969805 8.47643 2.9298 6.11287H0.724805V0.925342H27.3248V6.11287H20.1848L19.4148 7.24861C20.0448 7.21791 20.6748 7.21791 21.3048 7.21791C25.9248 7.21791 27.4998 8.41503 27.4998 11.8836V17.8078L20.1498 18.1148V13.664C20.1498 12.7431 19.9748 12.5589 19.0298 12.5589C18.7848 12.5589 18.3648 12.5896 17.8048 12.651C17.6298 14.0937 17.5948 15.874 17.5948 18.1148L10.4198 17.8078C10.4198 16.1196 10.4548 14.7383 10.4898 13.5412C9.57981 13.664 8.7048 13.7867 8.0048 13.9095C7.9348 15.1066 7.89981 16.4879 7.89981 18.1148L0.549805 17.8078ZM8.94981 8.81407C9.7898 8.6299 10.6298 8.44573 11.4348 8.29225C11.7848 7.49417 12.2048 6.81887 12.7998 6.11287H10.4898C9.82481 7.00304 9.33481 7.86251 8.94981 8.81407ZM28.5498 18.2683V0.495605H37.2998V18.2683H28.5498Z" fill="#56576A"/>
<path d="M75.9448 17.3972V24.4264H50.7798V25.3166H76.2948V29.0001H40.8048V21.6639H65.9698V20.7737H40.6298V17.3972H75.9448ZM39.2998 16.6298V12.6394H77.4498V16.6298H39.2998ZM40.2798 7.63603C41.2248 7.54395 42.2748 7.48256 43.4298 7.39047C43.4648 6.59239 43.7798 5.8557 44.3398 5.1804L40.9798 5.36457L40.6298 1.0979C49.5548 0.269124 67.1948 0.269124 76.1198 1.0979L75.7698 5.36457C74.6848 5.30318 73.6348 5.24179 72.6548 5.21109C73.2148 5.8557 73.4948 6.59239 73.5298 7.42116C74.5798 7.48256 75.5948 7.54395 76.4698 7.63603L76.1198 12.179C61.8398 11.4116 54.8398 11.4116 40.6298 12.179L40.2798 7.63603ZM53.2298 7.05282C56.6948 6.99143 60.2648 6.99143 63.6948 7.05282C63.7648 6.28543 63.5198 5.51805 63.0998 4.81205C59.9498 4.75066 57.0098 4.75066 53.8598 4.81205C53.4048 5.51805 53.1948 6.28543 53.2298 7.05282Z" fill="#56576A"/>
</svg>
