<svg width="81" height="30" viewBox="0 0 81 30" fill="none" xmlns="http://www.w3.org/2000/svg">
<path d="M13 0.5C20.1797 0.5 26 6.41224 26 13.7054C26 20.5294 20.9043 26.1441 14.3673 26.8382L12.915 29.5L11.4513 26.8177C5.00168 26.04 0 20.4661 0 13.7054C0 6.41224 5.8203 0.5 13 0.5ZM13.085 7.05952C9.42473 7.05952 6.45752 10.0736 6.45752 13.7917C6.45752 17.5097 9.42473 20.5238 13.085 20.5238C16.7452 20.5238 19.7124 17.5097 19.7124 13.7917C19.7124 10.0736 16.7452 7.05952 13.085 7.05952ZM13.085 11.375C14.3989 11.375 15.4641 12.457 15.4641 13.7917C15.4641 15.1264 14.3989 16.2083 13.085 16.2083C11.771 16.2083 10.7059 15.1264 10.7059 13.7917C10.7059 12.457 11.771 11.375 13.085 11.375ZM19.5425 6.19643C18.9794 6.19643 18.5229 6.66013 18.5229 7.23214C18.5229 7.80415 18.9794 8.26786 19.5425 8.26786C20.1056 8.26786 20.5621 7.80415 20.5621 7.23214C20.5621 6.66013 20.1056 6.19643 19.5425 6.19643Z" fill="white"/>
<path d="M79.3465 16.9057V21.9437H63.5285V22.5817H79.5665V25.2217H57.2585V19.9637H73.0765V19.3257H57.1485V16.9057H79.3465ZM56.3125 16.3557V13.4957H80.2925V16.3557H56.3125ZM56.9285 9.9097C57.5225 9.8437 58.1825 9.7997 58.9085 9.7337C58.9305 9.1617 59.1285 8.6337 59.4805 8.1497L57.3685 8.2817L57.1485 5.2237C62.7585 4.6297 73.8465 4.6297 79.4565 5.2237L79.2365 8.2817C78.5545 8.2377 77.8945 8.1937 77.2785 8.1717C77.6305 8.6337 77.8065 9.1617 77.8285 9.7557C78.4885 9.7997 79.1265 9.8437 79.6765 9.9097L79.4565 13.1657C70.4805 12.6157 66.0805 12.6157 57.1485 13.1657L56.9285 9.9097ZM65.0685 9.4917C67.2465 9.4477 69.4905 9.4477 71.6465 9.4917C71.6905 8.9417 71.5365 8.3917 71.2725 7.8857C69.2925 7.8417 67.4445 7.8417 65.4645 7.8857C65.1785 8.3917 65.0465 8.9417 65.0685 9.4917Z" fill="white"/>
<path d="M34.09 18.0937H55.1V25.2217H48.83V22.1637H34.09V18.0937ZM32 17.2137C32 12.1537 32.264 10.5257 33.496 8.83167H32.11V5.11366H48.83V8.83167H44.342L43.858 9.64567C44.254 9.62367 44.65 9.62366 45.046 9.62366C47.95 9.62366 48.94 10.4817 48.94 12.9677V17.2137L44.32 17.4337V14.2437C44.32 13.5837 44.21 13.4517 43.616 13.4517C43.462 13.4517 43.198 13.4737 42.846 13.5177C42.736 14.5517 42.714 15.8277 42.714 17.4337L38.204 17.2137C38.204 16.0037 38.226 15.0137 38.248 14.1557C37.676 14.2437 37.126 14.3317 36.686 14.4197C36.642 15.2777 36.62 16.2677 36.62 17.4337L32 17.2137ZM37.28 10.7677C37.808 10.6357 38.336 10.5037 38.842 10.3937C39.062 9.82167 39.326 9.33767 39.7 8.83167H38.248C37.83 9.46966 37.522 10.0857 37.28 10.7677ZM49.6 17.5437V4.80566H55.1V17.5437H49.6Z" fill="white"/>
</svg>
