<svg width="24" height="19" viewBox="0 0 24 19" fill="none" xmlns="http://www.w3.org/2000/svg">
<path d="M21.8564 3.36875H18.0417L15.7585 1.07375C15.7585 1.07375 15.7472 1.0625 15.7415 1.0625L15.7302 1.05125C15.3911 0.71375 14.9333 0.5 14.4134 0.5H9.66615C9.11231 0.5 8.62063 0.73625 8.27589 1.11313V1.11875L6.04355 3.36875H2.14402C1.09284 3.36875 0.245117 4.19 0.245117 5.23625V16.6044C0.245117 17.6506 1.09284 18.5 2.14402 18.5H21.8564C22.9019 18.5 23.7553 17.6506 23.7553 16.6044V5.23625C23.7553 4.19 22.9019 3.36875 21.8564 3.36875ZM12.0002 15.6594C9.12361 15.6594 6.77824 13.3194 6.77824 10.4506C6.77824 7.57625 9.12361 5.24188 12.0002 5.24188C14.8825 5.24188 17.2222 7.57625 17.2222 10.4506C17.2222 13.3194 14.8825 15.6594 12.0002 15.6594ZM21.5004 6.37812C21.0652 6.37812 20.7092 6.02375 20.7092 5.585C20.7092 5.14625 21.0652 4.79187 21.5004 4.79187C21.9355 4.79187 22.2916 5.14625 22.2916 5.585C22.2916 6.02375 21.9355 6.37812 21.5004 6.37812Z" fill="white"/>
</svg>
