<svg width="30" height="30" viewBox="0 0 30 30" fill="none" xmlns="http://www.w3.org/2000/svg">
<path d="M14.5 0.5C15.3284 0.5 16 1.17157 16 2V3.78613L15.9941 3.8916C20.7144 4.55056 24.4464 8.28298 25.1064 13.0029C25.1421 13.0004 25.1785 12.998 25.2148 12.998H27.001L27.1533 13.0059C27.9095 13.0829 28.5 13.7215 28.5 14.498C28.4999 15.2744 27.9094 15.9132 27.1533 15.9902L27 15.998H25.2139C25.178 15.998 25.1426 15.9947 25.1074 15.9922C24.4492 20.7135 20.7168 24.4465 15.9961 25.1064C15.9986 25.1421 16.002 25.1785 16.002 25.2148V27.001L15.9941 27.1533C15.9172 27.9095 15.2785 28.5 14.502 28.5C13.7255 28.4999 13.0867 27.9095 13.0098 27.1533L13.002 27V25.2139C13.002 25.1781 13.0044 25.1426 13.0068 25.1074C8.28433 24.4489 4.54897 20.7147 3.89062 15.9922L3.78613 15.998H2C1.17165 15.998 0.500132 15.3264 0.5 14.498C0.5 13.6696 1.17157 12.998 2 12.998H3.78613L3.8916 13.0029C4.55153 8.28302 8.28471 4.5507 13.0049 3.8916L13 3.78613V2C13 1.17157 13.6716 0.5 14.5 0.5ZM14.5 6.78613C10.2397 6.7862 6.7862 10.2397 6.78613 14.5C6.78633 18.7602 10.2398 22.2138 14.5 22.2139C18.7601 22.2137 22.2137 18.7601 22.2139 14.5C22.2138 10.2398 18.7602 6.78633 14.5 6.78613Z" fill="currentColor"/>
<circle cx="14.5" cy="14.5" r="4.5" fill="currentColor"/>
</svg>
