<svg width="20" height="20" viewBox="0 0 20 20" fill="none" xmlns="http://www.w3.org/2000/svg">
<path d="M1.71021 14.2898C1.61511 14.1988 1.50297 14.1274 1.38022 14.0798C1.13676 13.9798 0.863684 13.9798 0.620225 14.0798C0.497475 14.1274 0.385332 14.1988 0.290229 14.2898C0.19919 14.3849 0.127825 14.497 0.0802316 14.6198C0.00365303 14.8019 -0.0172694 15.0026 0.0201043 15.1966C0.057478 15.3906 0.151473 15.5692 0.290229 15.7098C0.387429 15.7981 0.499042 15.8691 0.620225 15.9198C0.739924 15.9727 0.869352 16 1.00022 16C1.13109 16 1.26052 15.9727 1.38022 15.9198C1.5014 15.8691 1.61301 15.7981 1.71021 15.7098C1.84897 15.5692 1.94296 15.3906 1.98034 15.1966C2.01771 15.0026 1.99679 14.8019 1.92021 14.6198C1.87262 14.497 1.80125 14.3849 1.71021 14.2898ZM5.00017 5.99996H19C19.2652 5.99996 19.5196 5.89461 19.7071 5.70707C19.8946 5.51954 20 5.26519 20 4.99998C20 4.73477 19.8946 4.48042 19.7071 4.29289C19.5196 4.10535 19.2652 4 19 4H5.00017C4.73496 4 4.48061 4.10535 4.29308 4.29289C4.10554 4.48042 4.00019 4.73477 4.00019 4.99998C4.00019 5.26519 4.10554 5.51954 4.29308 5.70707C4.48061 5.89461 4.73496 5.99996 5.00017 5.99996ZM1.71021 9.2899C1.56959 9.15114 1.39102 9.05715 1.19703 9.01977C1.00304 8.9824 0.802334 9.00332 0.620225 9.0799C0.499042 9.13054 0.387429 9.20157 0.290229 9.2899C0.19919 9.385 0.127825 9.49714 0.0802316 9.61989C0.027327 9.73959 0 9.86902 0 9.99988C0 10.1308 0.027327 10.2602 0.0802316 10.3799C0.130873 10.5011 0.201899 10.6127 0.290229 10.7099C0.387429 10.7982 0.499042 10.8692 0.620225 10.9199C0.739924 10.9728 0.869352 11.0001 1.00022 11.0001C1.13109 11.0001 1.26052 10.9728 1.38022 10.9199C1.5014 10.8692 1.61301 10.7982 1.71021 10.7099C1.79854 10.6127 1.86957 10.5011 1.92021 10.3799C1.97311 10.2602 2.00044 10.1308 2.00044 9.99988C2.00044 9.86902 1.97311 9.73959 1.92021 9.61989C1.87262 9.49714 1.80125 9.385 1.71021 9.2899ZM19 8.9999H5.00017C4.73496 8.9999 4.48061 9.10526 4.29308 9.29279C4.10554 9.48032 4.00019 9.73467 4.00019 9.99988C4.00019 10.2651 4.10554 10.5194 4.29308 10.707C4.48061 10.8945 4.73496 10.9999 5.00017 10.9999H19C19.2652 10.9999 19.5196 10.8945 19.7071 10.707C19.8946 10.5194 20 10.2651 20 9.99988C20 9.73467 19.8946 9.48032 19.7071 9.29279C19.5196 9.10526 19.2652 8.9999 19 8.9999ZM1.71021 4.28999C1.61511 4.19896 1.50297 4.12759 1.38022 4.08C1.19811 4.00342 0.997397 3.9825 0.80341 4.01987C0.609422 4.05725 0.430851 4.15124 0.290229 4.28999C0.201899 4.38719 0.130873 4.49881 0.0802316 4.61999C0.027327 4.73969 0 4.86911 0 4.99998C0 5.13085 0.027327 5.26028 0.0802316 5.37997C0.130873 5.50116 0.201899 5.61277 0.290229 5.70997C0.387429 5.7983 0.499042 5.86932 0.620225 5.91996C0.802334 5.99654 1.00304 6.01746 1.19703 5.98009C1.39102 5.94272 1.56959 5.84872 1.71021 5.70997C1.79854 5.61277 1.86957 5.50116 1.92021 5.37997C1.97311 5.26028 2.00044 5.13085 2.00044 4.99998C2.00044 4.86911 1.97311 4.73969 1.92021 4.61999C1.86957 4.49881 1.79854 4.38719 1.71021 4.28999ZM19 13.9998H5.00017C4.73496 13.9998 4.48061 14.1052 4.29308 14.2927C4.10554 14.4802 4.00019 14.7346 4.00019 14.9998C4.00019 15.265 4.10554 15.5193 4.29308 15.7069C4.48061 15.8944 4.73496 15.9998 5.00017 15.9998H19C19.2652 15.9998 19.5196 15.8944 19.7071 15.7069C19.8946 15.5193 20 15.265 20 14.9998C20 14.7346 19.8946 14.4802 19.7071 14.2927C19.5196 14.1052 19.2652 13.9998 19 13.9998Z" fill="currentColor" />
</svg>
