<svg width="14" height="15" viewBox="0 0 14 15" fill="none" xmlns="http://www.w3.org/2000/svg">
<path d="M13.8096 12.5802L11.0832 9.85431C10.9602 9.73127 10.7934 9.66292 10.6184 9.66292H10.1726C10.9274 8.69778 11.3758 7.48384 11.3758 6.16326C11.3758 3.02177 8.82994 0.476318 5.68792 0.476318C2.54589 0.476318 0 3.02177 0 6.16326C0 9.30475 2.54589 11.8502 5.68792 11.8502C7.00872 11.8502 8.22287 11.4018 9.18817 10.6472V11.0929C9.18817 11.2678 9.25654 11.4346 9.37959 11.5577L12.106 14.2836C12.363 14.5406 12.7787 14.5406 13.033 14.2836L13.8069 13.5098C14.0639 13.2528 14.0639 12.8372 13.8096 12.5802ZM5.68792 9.66292C3.75457 9.66292 2.18766 8.09901 2.18766 6.16326C2.18766 4.23025 3.75184 2.6636 5.68792 2.6636C7.62126 2.6636 9.18817 4.22751 9.18817 6.16326C9.18817 8.09628 7.624 9.66292 5.68792 9.66292Z" fill="#E0DFE4"/>
</svg>
