<svg width="8" height="15" viewBox="0 0 8 15"  fill="currentColor" xmlns="http://www.w3.org/2000/svg">
<path d="M4.37834 11.0403C4.14469 11.0407 3.91825 10.9594 3.73834 10.8103C3.63708 10.7263 3.55338 10.6232 3.49203 10.5069C3.43068 10.3905 3.39288 10.2632 3.38081 10.1322C3.36873 10.0013 3.38261 9.86919 3.42166 9.74359C3.4607 9.61799 3.52414 9.50132 3.60834 9.40027L5.19834 7.50027L0.728342 2.14027C0.644296 2.03915 0.58099 1.92247 0.542038 1.79689C0.503085 1.67131 0.48925 1.53928 0.501321 1.40835C0.513393 1.27742 0.551135 1.15015 0.612393 1.0338C0.673651 0.917459 0.757224 0.814319 0.858342 0.730273C0.95946 0.646227 1.07614 0.582921 1.20173 0.543968C1.32731 0.505016 1.45934 0.491181 1.59027 0.503252C1.7212 0.515324 1.84847 0.553066 1.96481 0.614324C2.08116 0.675581 2.1843 0.759155 2.26834 0.860273L7.26834 6.86027C7.41801 7.03996 7.49997 7.26642 7.49997 7.50027C7.49997 7.73413 7.41801 7.96059 7.26834 8.14027L5.14834 10.6803C5.05432 10.7932 4.93658 10.8839 4.80349 10.9462C4.67041 11.0084 4.52525 11.0405 4.37834 11.0403ZM1.49834 14.5003C1.26469 14.5007 1.03825 14.4194 0.858342 14.2703C0.757083 14.1863 0.673382 14.0832 0.61203 13.9669C0.550678 13.8505 0.512881 13.7232 0.500805 13.5922C0.48873 13.4613 0.502612 13.3292 0.541656 13.2036C0.580701 13.078 0.64414 12.9613 0.728342 12.8603L1.86834 11.4903C1.953 11.3897 2.05664 11.3069 2.17334 11.2464C2.29004 11.186 2.41751 11.1491 2.54847 11.138C2.67942 11.1269 2.81129 11.1416 2.93652 11.1815C3.06176 11.2213 3.17792 11.2855 3.27834 11.3703C3.47411 11.5389 3.59699 11.7768 3.62123 12.0341C3.64546 12.2914 3.56917 12.548 3.40834 12.7503L2.26834 14.1103C2.17727 14.2287 2.06083 14.3251 1.92759 14.3926C1.79434 14.4601 1.64767 14.4969 1.49834 14.5003Z"   fill="currentColor"/>
</svg>
