<svg width="48" height="60" viewBox="0 0 48 60" fill="none" xmlns="http://www.w3.org/2000/svg">
<path d="M23.0283 0.0166016C26.3217 -0.103738 29.6061 0.426029 32.6846 1.57422C35.7631 2.72244 38.5728 4.46497 40.9443 6.69824C45.4923 11.0034 47.996 16.71 48 22.7754C48 42.8843 26.9596 58.5162 26.0596 59.1758L24.9316 60L23.7725 59.2188C22.8005 58.5669 0.00028124 42.9548 0 24.5127C0 11.2928 10.1123 0.531814 23.0283 0.0166016ZM24 10C16.268 10 10 16.268 10 24C10.0002 31.7318 16.2682 38 24 38C31.7318 38 37.9998 31.7318 38 24C38 16.268 31.732 10 24 10ZM24 15C28.9706 15 33 19.0294 33 24C32.9998 28.9704 28.9704 33 24 33C19.0296 33 15.0002 28.9704 15 24C15 19.0294 19.0294 15 24 15Z" fill="#E73838"/>
</svg>
