<svg width="48" height="60" viewBox="0 0 48 60" fill="none" xmlns="http://www.w3.org/2000/svg">
<path d="M22.6505 0.0167425C9.94623 0.531955 0 11.2929 0 24.5128C0 42.955 22.4262 58.5676 23.3823 59.2194L24.5233 60L25.6328 59.1764C26.518 58.5168 47.2131 42.8848 47.2131 22.7759C47.2092 16.7104 44.7462 11.004 40.2728 6.6989C37.9401 4.46561 35.1769 2.72261 32.1488 1.57439C29.1207 0.42616 25.89 -0.103642 22.6505 0.0167425Z" fill="#4F4CA9"/>
<path d="M36.265 12.9731H11.4905C10.8417 12.9731 10.3108 13.5013 10.3108 14.1469V32.3399C10.3108 32.9855 10.8417 33.5137 11.4905 33.5137H36.265C36.9139 33.5137 37.4448 32.9855 37.4448 32.3399V14.1469C37.4448 13.5013 36.9139 12.9731 36.265 12.9731ZM35.0853 15.3206V25.1507L33.1092 23.5075C32.6668 23.1554 32.0475 23.1554 31.6051 23.5075L28.4198 26.1484L21.0169 19.7515C20.5745 19.3701 19.9551 19.3701 19.5127 19.7222L12.6703 25.2094V15.3206H35.0853ZM12.6703 31.1662V28.2318L20.2206 22.1577L27.6234 28.5546C28.0658 28.9361 28.7147 28.9361 29.1571 28.584L32.3424 25.943L35.0853 28.2318V31.1662H12.6703ZM25.6769 19.3114C25.6769 18.1376 26.6502 17.1693 27.8594 17.1693C29.0686 17.1693 30.0419 18.1376 30.0419 19.3114C30.0419 20.4851 29.0686 21.4535 27.8594 21.4535C26.6502 21.4535 25.6769 20.4851 25.6769 19.3114Z" fill="#F5F1FF"/>
</svg>
