<svg width="340" height="195" viewBox="0 0 340 195" fill="none" xmlns="http://www.w3.org/2000/svg">
<rect y="0.476318" width="340" height="194" rx="16" fill="#F8F8F8"/>
<path opacity="0.2" d="M84.0337 37.4763H43.9692C42.3302 37.4763 41.0015 38.8088 41.0015 40.4525V71.5001C41.0015 73.1438 42.3302 74.4763 43.9692 74.4763H84.0337C85.6728 74.4763 87.0015 73.1438 87.0015 71.5001V40.4525C87.0015 38.8088 85.6728 37.4763 84.0337 37.4763Z" fill="#58A8F7"/>
<mask id="mask0_60_618" style="mask-type:alpha" maskUnits="userSpaceOnUse" x="41" y="37" width="47" height="38">
<path d="M84.0337 37.4763H43.9692C42.3302 37.4763 41.0015 38.8088 41.0015 40.4525V71.5001C41.0015 73.1438 42.3302 74.4763 43.9692 74.4763H84.0337C85.6728 74.4763 87.0015 73.1438 87.0015 71.5001V40.4525C87.0015 38.8088 85.6728 37.4763 84.0337 37.4763Z" fill="white"/>
</mask>
<g mask="url(#mask0_60_618)">
<path opacity="0.2" d="M80.4282 57.6584C89.3095 57.6584 94.7747 64.8392 103.428 74.4767C96.3689 74.4767 66.1472 74.4767 57.4282 74.4767C64.9431 66.54 71.5471 57.6584 80.4282 57.6584Z" fill="#58A8F7"/>
<path opacity="0.2" d="M47.5747 54.2952C56.9491 54.2952 63.836 63.9185 72.2175 74.4771C61.2203 74.4771 34.5883 74.4771 24.5747 74.4771C32.6708 63.9185 38.2003 54.2952 47.5747 54.2952Z" fill="#0D87FF"/>
<path opacity="0.5" d="M66.2275 53.8455C68.6861 53.8455 70.6791 51.8469 70.6791 49.3813C70.6791 46.9158 68.6861 44.917 66.2275 44.917C63.7689 44.917 61.7759 46.9158 61.7759 49.3813C61.7759 51.8469 63.7689 53.8455 66.2275 53.8455Z" fill="#58A8F7"/>
</g>
<path opacity="0.2" d="M135.656 37.4763H95.4776C93.8339 37.4763 92.5015 38.8088 92.5015 40.4525V71.5001C92.5015 73.1438 93.8339 74.4763 95.4776 74.4763H135.656C137.3 74.4763 138.632 73.1438 138.632 71.5001V40.4525C138.632 38.8088 137.3 37.4763 135.656 37.4763Z" fill="#58A8F7"/>
<mask id="mask1_60_618" style="mask-type:alpha" maskUnits="userSpaceOnUse" x="92" y="37" width="47" height="38">
<path d="M135.656 37.4763H95.4776C93.8339 37.4763 92.5015 38.8088 92.5015 40.4525V71.5001C92.5015 73.1438 93.8339 74.4763 95.4776 74.4763H135.656C137.3 74.4763 138.632 73.1438 138.632 71.5001V40.4525C138.632 38.8088 137.3 37.4763 135.656 37.4763Z" fill="white"/>
</mask>
<g mask="url(#mask1_60_618)">
<path opacity="0.2" d="M132.041 57.6584C140.947 57.6584 146.428 64.8392 155.106 74.4767C148.027 74.4767 117.719 74.4767 108.976 74.4767C116.512 66.54 123.135 57.6584 132.041 57.6584Z" fill="#58A8F7"/>
<path opacity="0.2" d="M99.0937 54.2952C108.495 54.2952 115.401 63.9185 123.807 74.4771C112.778 74.4771 86.0704 74.4771 76.0283 74.4771C84.1474 63.9185 89.6926 54.2952 99.0937 54.2952Z" fill="#0D87FF"/>
<path opacity="0.5" d="M117.799 53.8455C120.265 53.8455 122.263 51.8469 122.263 49.3813C122.263 46.9158 120.265 44.917 117.799 44.917C115.334 44.917 113.335 46.9158 113.335 49.3813C113.335 51.8469 115.334 53.8455 117.799 53.8455Z" fill="#58A8F7"/>
</g>
<path opacity="0.2" d="M84.1553 79.1431H43.9776C42.3339 79.1431 41.0015 80.4755 41.0015 82.1192V113.166C41.0015 114.81 42.3339 116.142 43.9776 116.142H84.1553C85.799 116.142 87.1315 114.81 87.1315 113.166V82.1192C87.1315 80.4755 85.799 79.1431 84.1553 79.1431Z" fill="#A1A1AC"/>
<mask id="mask2_60_618" style="mask-type:alpha" maskUnits="userSpaceOnUse" x="41" y="79" width="47" height="38">
<path d="M84.1553 79.1431H43.9776C42.3339 79.1431 41.0015 80.4755 41.0015 82.1192V113.166C41.0015 114.81 42.3339 116.142 43.9776 116.142H84.1553C85.799 116.142 87.1315 114.81 87.1315 113.166V82.1192C87.1315 80.4755 85.799 79.1431 84.1553 79.1431Z" fill="#A1A1AC"/>
</mask>
<g mask="url(#mask2_60_618)">
<path opacity="0.2" d="M80.5396 99.3242C89.446 99.3242 94.9267 106.506 103.605 116.142C96.5253 116.142 66.2182 116.142 57.4746 116.142C65.0108 108.206 71.6334 99.3242 80.5396 99.3242Z" fill="#A1A1AC"/>
<path opacity="0.2" d="M47.5933 95.9612C56.9942 95.9612 63.9006 105.584 72.3058 116.142C61.2774 116.142 34.5702 116.142 24.5283 116.142C32.6473 105.584 38.1924 95.9612 47.5933 95.9612Z" fill="#A1A1AC"/>
<path opacity="0.5" d="M66.2982 95.5115C68.7638 95.5115 70.7624 93.513 70.7624 91.0473C70.7624 88.582 68.7638 86.5833 66.2982 86.5833C63.8326 86.5833 61.834 88.582 61.834 91.0473C61.834 93.513 63.8326 95.5115 66.2982 95.5115Z" fill="#A1A1AC"/>
</g>
<path opacity="0.2" d="M135.656 79.1431H95.4776C93.8339 79.1431 92.5015 80.4755 92.5015 82.1192V113.167C92.5015 114.811 93.8339 116.143 95.4776 116.143H135.656C137.3 116.143 138.632 114.811 138.632 113.167V82.1192C138.632 80.4755 137.3 79.1431 135.656 79.1431Z" fill="#58A8F7"/>
<mask id="mask3_60_618" style="mask-type:alpha" maskUnits="userSpaceOnUse" x="92" y="79" width="47" height="38">
<path d="M135.656 79.1431H95.4776C93.8339 79.1431 92.5015 80.4755 92.5015 82.1192V113.167C92.5015 114.811 93.8339 116.143 95.4776 116.143H135.656C137.3 116.143 138.632 114.811 138.632 113.167V82.1192C138.632 80.4755 137.3 79.1431 135.656 79.1431Z" fill="white"/>
</mask>
<g mask="url(#mask3_60_618)">
<path opacity="0.2" d="M132.041 99.3252C140.947 99.3252 146.428 106.506 155.106 116.143C148.027 116.143 117.719 116.143 108.976 116.143C116.512 108.207 123.135 99.3252 132.041 99.3252Z" fill="#58A8F7"/>
<path opacity="0.2" d="M99.0937 95.9619C108.495 95.9619 115.401 105.585 123.807 116.144C112.778 116.144 86.0704 116.144 76.0283 116.144C84.1474 105.585 89.6926 95.9619 99.0937 95.9619Z" fill="#0D87FF"/>
<path opacity="0.5" d="M117.799 95.5123C120.265 95.5123 122.263 93.5136 122.263 91.048C122.263 88.5825 120.265 86.5837 117.799 86.5837C115.334 86.5837 113.335 88.5825 113.335 91.048C113.335 93.5136 115.334 95.5123 117.799 95.5123Z" fill="#58A8F7"/>
</g>
<path opacity="0.2" d="M84.1561 120.81H43.9776C42.3339 120.81 41.0015 122.142 41.0015 123.786V154.833C41.0015 156.477 42.3339 157.81 43.9776 157.81H84.1561C85.7998 157.81 87.1322 156.477 87.1322 154.833V123.786C87.1322 122.142 85.7998 120.81 84.1561 120.81Z" fill="#58A8F7"/>
<mask id="mask4_60_618" style="mask-type:alpha" maskUnits="userSpaceOnUse" x="41" y="120" width="47" height="38">
<path d="M84.1561 120.81H43.9776C42.3339 120.81 41.0015 122.142 41.0015 123.786V154.833C41.0015 156.477 42.3339 157.81 43.9776 157.81H84.1561C85.7998 157.81 87.1322 156.477 87.1322 154.833V123.786C87.1322 122.142 85.7998 120.81 84.1561 120.81Z" fill="white"/>
</mask>
<g mask="url(#mask4_60_618)">
<path opacity="0.2" d="M80.541 140.992C89.4475 140.992 94.9283 148.172 103.606 157.81C96.5269 157.81 66.2193 157.81 57.4756 157.81C65.0119 149.873 71.6346 140.992 80.541 140.992Z" fill="#58A8F7"/>
<path opacity="0.2" d="M47.5937 137.628C56.9947 137.628 63.9012 147.252 72.3066 157.81C61.278 157.81 34.5704 157.81 24.5283 157.81C32.6474 147.252 38.1926 137.628 47.5937 137.628Z" fill="#0D87FF"/>
<path opacity="0.5" d="M66.2992 137.179C68.7648 137.179 70.7635 135.18 70.7635 132.715C70.7635 130.249 68.7648 128.25 66.2992 128.25C63.8336 128.25 61.835 130.249 61.835 132.715C61.835 135.18 63.8336 137.179 66.2992 137.179Z" fill="#58A8F7"/>
</g>
<path opacity="0.2" d="M135.655 120.81H95.4776C93.8339 120.81 92.5015 122.142 92.5015 123.786V154.833C92.5015 156.477 93.8339 157.809 95.4776 157.809H135.655C137.299 157.809 138.631 156.477 138.631 154.833V123.786C138.631 122.142 137.299 120.81 135.655 120.81Z" fill="#A1A1AC"/>
<mask id="mask5_60_618" style="mask-type:alpha" maskUnits="userSpaceOnUse" x="92" y="120" width="47" height="38">
<path d="M135.655 120.81H95.4776C93.8339 120.81 92.5015 122.142 92.5015 123.786V154.833C92.5015 156.477 93.8339 157.809 95.4776 157.809H135.655C137.299 157.809 138.631 156.477 138.631 154.833V123.786C138.631 122.142 137.299 120.81 135.655 120.81Z" fill="#A1A1AC"/>
</mask>
<g mask="url(#mask5_60_618)">
<path opacity="0.2" d="M132.04 140.991C140.946 140.991 146.427 148.172 155.105 157.809C148.025 157.809 117.718 157.809 108.975 157.809C116.511 149.873 123.133 140.991 132.04 140.991Z" fill="#A1A1AC"/>
<path opacity="0.2" d="M99.0933 137.628C108.494 137.628 115.401 147.251 123.806 157.809C112.777 157.809 86.0702 157.809 76.0283 157.809C84.1473 147.251 89.6924 137.628 99.0933 137.628Z" fill="#A1A1AC"/>
<path opacity="0.5" d="M117.798 137.178C120.264 137.178 122.262 135.18 122.262 132.714C122.262 130.249 120.264 128.25 117.798 128.25C115.333 128.25 113.334 130.249 113.334 132.714C113.334 135.18 115.333 137.178 117.798 137.178Z" fill="#A1A1AC"/>
</g>
<path d="M174.001 98.5061H164.001C163.736 98.5061 163.482 98.4007 163.294 98.2132C163.107 98.0257 163.001 97.7713 163.001 97.5061C163.001 97.2409 163.107 96.9865 163.294 96.799C163.482 96.6115 163.736 96.5061 164.001 96.5061H174.001C174.267 96.5061 174.521 96.6115 174.709 96.799C174.896 96.9865 175.001 97.2409 175.001 97.5061C175.001 97.7713 174.896 98.0257 174.709 98.2132C174.521 98.4007 174.267 98.5061 174.001 98.5061Z" fill="#4F4CA9"/>
<path d="M172.007 102.447C171.809 102.448 171.614 102.39 171.449 102.28C171.283 102.17 171.154 102.013 171.078 101.83C171.002 101.647 170.982 101.445 171.021 101.25C171.06 101.055 171.156 100.876 171.297 100.737L174.597 97.4466L171.297 94.1566C171.133 93.9653 171.048 93.7192 171.058 93.4675C171.067 93.2158 171.172 92.9771 171.35 92.799C171.528 92.6209 171.767 92.5166 172.018 92.5068C172.27 92.4971 172.516 92.5827 172.707 92.7466L176.707 96.7466C176.894 96.9339 176.998 97.1874 176.998 97.4516C176.998 97.7157 176.894 97.9692 176.707 98.1566L172.707 102.157C172.521 102.341 172.27 102.445 172.007 102.447Z" fill="#4F4CA9"/>
<rect x="200.998" y="37.4763" width="98" height="120" fill="white"/>
<path opacity="0.2" d="M245.582 46.4763H212.452C211.097 46.4763 209.998 48.0249 209.998 49.9351V86.0175C209.998 87.9278 211.097 89.4763 212.452 89.4763H245.582C246.938 89.4763 248.037 87.9278 248.037 86.0175V49.9351C248.037 48.0249 246.938 46.4763 245.582 46.4763Z" fill="#58A8F7"/>
<mask id="mask6_60_618" style="mask-type:alpha" maskUnits="userSpaceOnUse" x="209" y="46" width="40" height="44">
<path d="M245.684 46.4763H212.459C211.1 46.4763 209.998 48.0249 209.998 49.9351V86.0175C209.998 87.9278 211.1 89.4763 212.459 89.4763H245.684C247.043 89.4763 248.145 87.9278 248.145 86.0175V49.9351C248.145 48.0249 247.043 46.4763 245.684 46.4763Z" fill="white"/>
</mask>
<g mask="url(#mask6_60_618)">
<path opacity="0.2" d="M242.694 75.5693C250.059 75.5693 254.591 81.5073 261.767 89.4767C255.913 89.4767 230.851 89.4767 223.621 89.4767C229.853 82.9137 235.329 75.5693 242.694 75.5693Z" fill="#58A8F7"/>
<path opacity="0.2" d="M215.449 72.7881C223.223 72.7881 228.934 80.7458 235.885 89.477C226.765 89.477 204.68 89.477 196.376 89.477C203.09 80.7458 207.675 72.7881 215.449 72.7881Z" fill="#0D87FF"/>
<path opacity="0.5" d="M232.709 66.2633C234.748 66.2633 236.401 64.6106 236.401 62.5717C236.401 60.533 234.748 58.8801 232.709 58.8801C230.67 58.8801 229.018 60.533 229.018 62.5717C229.018 64.6106 230.67 66.2633 232.709 66.2633Z" fill="#58A8F7"/>
</g>
<path opacity="0.2" d="M286.729 46.4763H253.599C252.243 46.4763 251.145 48.0249 251.145 49.9351V86.0175C251.145 87.9278 252.243 89.4763 253.599 89.4763H286.729C288.084 89.4763 289.183 87.9278 289.183 86.0175V49.9351C289.183 48.0249 288.084 46.4763 286.729 46.4763Z" fill="#58A8F7"/>
<mask id="mask7_60_618" style="mask-type:alpha" maskUnits="userSpaceOnUse" x="251" y="46" width="39" height="44">
<path d="M286.83 46.4763H253.606C252.246 46.4763 251.145 48.0249 251.145 49.9351V86.0175C251.145 87.9278 252.246 89.4763 253.606 89.4763H286.83C288.189 89.4763 289.291 87.9278 289.291 86.0175V49.9351C289.291 48.0249 288.189 46.4763 286.83 46.4763Z" fill="white"/>
</mask>
<g mask="url(#mask7_60_618)">
<path opacity="0.2" d="M283.84 75.5693C291.205 75.5693 295.738 81.5073 302.914 89.4767C297.06 89.4767 271.997 89.4767 264.767 89.4767C270.999 82.9137 276.476 75.5693 283.84 75.5693Z" fill="#58A8F7"/>
<path opacity="0.2" d="M256.596 72.7881C264.37 72.7881 270.081 80.7458 277.031 89.477C267.912 89.477 245.826 89.477 237.522 89.477C244.236 80.7458 248.822 72.7881 256.596 72.7881Z" fill="#0D87FF"/>
<path opacity="0.5" d="M273.856 66.2633C275.895 66.2633 277.547 64.6106 277.547 62.5717C277.547 60.533 275.895 58.8801 273.856 58.8801C271.817 58.8801 270.164 60.533 270.164 62.5717C270.164 64.6106 271.817 66.2633 273.856 66.2633Z" fill="#58A8F7"/>
</g>
<path opacity="0.2" d="M245.582 92.4763H212.452C211.097 92.4763 209.998 94.0249 209.998 95.9351V132.018C209.998 133.928 211.097 135.476 212.452 135.476H245.582C246.938 135.476 248.037 133.928 248.037 132.018V95.9351C248.037 94.0249 246.938 92.4763 245.582 92.4763Z" fill="#58A8F7"/>
<mask id="mask8_60_618" style="mask-type:alpha" maskUnits="userSpaceOnUse" x="209" y="92" width="40" height="44">
<path d="M245.684 92.4763H212.459C211.1 92.4763 209.998 94.0249 209.998 95.9351V132.018C209.998 133.928 211.1 135.476 212.459 135.476H245.684C247.043 135.476 248.145 133.928 248.145 132.018V95.9351C248.145 94.0249 247.043 92.4763 245.684 92.4763Z" fill="white"/>
</mask>
<g mask="url(#mask8_60_618)">
<path opacity="0.2" d="M242.694 121.569C250.059 121.569 254.591 127.507 261.767 135.477C255.913 135.477 230.851 135.477 223.621 135.477C229.853 128.914 235.329 121.569 242.694 121.569Z" fill="#58A8F7"/>
<path opacity="0.2" d="M215.449 118.788C223.223 118.788 228.934 126.746 235.885 135.477C226.765 135.477 204.68 135.477 196.376 135.477C203.09 126.746 207.675 118.788 215.449 118.788Z" fill="#0D87FF"/>
<path opacity="0.5" d="M232.709 112.263C234.748 112.263 236.401 110.611 236.401 108.572C236.401 106.533 234.748 104.88 232.709 104.88C230.67 104.88 229.018 106.533 229.018 108.572C229.018 110.611 230.67 112.263 232.709 112.263Z" fill="#58A8F7"/>
</g>
<path opacity="0.2" d="M286.729 92.4763H253.599C252.243 92.4763 251.145 94.0249 251.145 95.9351V132.018C251.145 133.928 252.243 135.476 253.599 135.476H286.729C288.084 135.476 289.183 133.928 289.183 132.018V95.9351C289.183 94.0249 288.084 92.4763 286.729 92.4763Z" fill="#58A8F7"/>
<mask id="mask9_60_618" style="mask-type:alpha" maskUnits="userSpaceOnUse" x="251" y="92" width="39" height="44">
<path d="M286.83 92.4763H253.606C252.246 92.4763 251.145 94.0249 251.145 95.9351V132.018C251.145 133.928 252.246 135.476 253.606 135.476H286.83C288.189 135.476 289.291 133.928 289.291 132.018V95.9351C289.291 94.0249 288.189 92.4763 286.83 92.4763Z" fill="white"/>
</mask>
<g mask="url(#mask9_60_618)">
<path opacity="0.2" d="M283.84 121.569C291.205 121.569 295.738 127.507 302.914 135.477C297.06 135.477 271.997 135.477 264.767 135.477C270.999 128.914 276.476 121.569 283.84 121.569Z" fill="#58A8F7"/>
<path opacity="0.2" d="M256.596 118.788C264.37 118.788 270.081 126.746 277.031 135.477C267.912 135.477 245.826 135.477 237.522 135.477C244.236 126.746 248.822 118.788 256.596 118.788Z" fill="#0D87FF"/>
<path opacity="0.5" d="M273.856 112.263C275.895 112.263 277.547 110.611 277.547 108.572C277.547 106.533 275.895 104.88 273.856 104.88C271.817 104.88 270.164 106.533 270.164 108.572C270.164 110.611 271.817 112.263 273.856 112.263Z" fill="#58A8F7"/>
</g>
</svg>
